<svg id="Group_1457" data-name="Group 1457" xmlns="http://www.w3.org/2000/svg" width="361.011" height="330.86" viewBox="0 0 361.011 330.86">
  <g id="Rectangle_453" data-name="Rectangle 453" transform="translate(0 0)" fill="none" stroke="#ffa200" stroke-width="3">
    <path d="M30,0H341.011a20,20,0,0,1,20,20V310.86a20,20,0,0,1-20,20H30a30,30,0,0,1-30-30V30A30,30,0,0,1,30,0Z" stroke="none"/>
    <path d="M30,1.5H341.011a18.5,18.5,0,0,1,18.5,18.5V310.86a18.5,18.5,0,0,1-18.5,18.5H30a28.5,28.5,0,0,1-28.5-28.5V30A28.5,28.5,0,0,1,30,1.5Z" fill="none"/>
  </g>
</svg>
