<svg id="icon_subscribe_section" data-name="icon subscribe section" xmlns="http://www.w3.org/2000/svg" xmlns:xlink="http://www.w3.org/1999/xlink" width="398.085" height="353" viewBox="0 0 398.085 353">
  <defs>
    <clipPath id="clip-path">
      <rect id="Rectangle_875" data-name="Rectangle 875" width="145.476" height="94.194" fill="#0f2d80"/>
    </clipPath>
  </defs>
  <g id="Ellipse_33" data-name="Ellipse 33" transform="translate(49)" fill="none" stroke="rgba(15,45,128,0.09)" stroke-width="40">
    <ellipse cx="156" cy="157" rx="156" ry="157" stroke="none"/>
    <ellipse cx="156" cy="157" rx="136" ry="137" fill="none"/>
  </g>
  <g id="Group_1406" data-name="Group 1406" transform="translate(-22.224 26.039)">
    <g id="Rectangle_859" data-name="Rectangle 859" transform="translate(22.224 57.461)" fill="#dee9ff" stroke="#ffa200" stroke-width="2">
      <rect width="104" height="65" rx="10" stroke="none"/>
      <rect x="1" y="1" width="102" height="63" rx="9" fill="none"/>
    </g>
    <g id="Rectangle_869" data-name="Rectangle 869" transform="translate(69.224 14.461)" fill="#dee9ff" stroke="#ffa200" stroke-width="2">
      <rect width="92" height="57" rx="10" stroke="none"/>
      <rect x="1" y="1" width="90" height="55" rx="9" fill="none"/>
    </g>
    <path id="Path_1496" data-name="Path 1496" d="M13.695,0,0,23.721H27.389Z" transform="translate(88.102 77.991) rotate(90)" fill="none" stroke="#ffa200" stroke-width="2"/>
    <path id="Path_1497" data-name="Path 1497" d="M11.92,0,0,20.647H23.841Z" transform="translate(127.186 31.912) rotate(90)" fill="#dee9ff" stroke="#ffa200" stroke-width="2"/>
  </g>
  <g id="Group_1407" data-name="Group 1407" transform="translate(302.57 57.429)">
    <g id="Rectangle_873" data-name="Rectangle 873" transform="translate(95.515 0) rotate(90)" fill="#dee9ff" stroke="#ffa200" stroke-width="2">
      <rect width="107.289" height="88.791" rx="10" stroke="none"/>
      <rect x="1" y="1" width="105.289" height="86.791" rx="9" fill="none"/>
    </g>
    <g id="Group_1402" data-name="Group 1402" transform="translate(0 9.282)">
      <g id="Rectangle_860" data-name="Rectangle 860" transform="translate(88.791) rotate(90)" fill="#dee9ff" stroke="#ffa200" stroke-width="2">
        <rect width="107.289" height="88.791" rx="10" stroke="none"/>
        <rect x="1" y="1" width="105.289" height="86.791" rx="9" fill="none"/>
      </g>
      <g id="Rectangle_861" data-name="Rectangle 861" transform="translate(79.542 10.719) rotate(90)" fill="#dee9ff" stroke="#ffa200" stroke-width="2">
        <rect width="42.926" height="70.91" rx="5" stroke="none"/>
        <rect x="1" y="1" width="40.926" height="68.91" rx="4" fill="none"/>
      </g>
      <g id="Rectangle_862" data-name="Rectangle 862" transform="translate(79.542 57.581) rotate(90)" fill="#dee9ff" stroke="#ffa200" stroke-width="2">
        <rect width="9.629" height="20.965" rx="2" stroke="none"/>
        <rect x="1" y="1" width="7.629" height="18.965" rx="1" fill="none"/>
      </g>
      <g id="Rectangle_870" data-name="Rectangle 870" transform="translate(79.542 68.68) rotate(90)" fill="#dee9ff" stroke="#ffa200" stroke-width="2">
        <rect width="9.629" height="20.965" rx="2" stroke="none"/>
        <rect x="1" y="1" width="7.629" height="18.965" rx="1" fill="none"/>
      </g>
      <g id="Rectangle_871" data-name="Rectangle 871" transform="translate(79.542 79.778) rotate(90)" fill="#dee9ff" stroke="#ffa200" stroke-width="2">
        <rect width="9.629" height="20.965" rx="2" stroke="none"/>
        <rect x="1" y="1" width="7.629" height="18.965" rx="1" fill="none"/>
      </g>
      <g id="Rectangle_872" data-name="Rectangle 872" transform="translate(79.542 90.877) rotate(90)" fill="#dee9ff" stroke="#ffa200" stroke-width="2">
        <rect width="9.629" height="20.965" rx="2" stroke="none"/>
        <rect x="1" y="1" width="7.629" height="18.965" rx="1" fill="none"/>
      </g>
      <g id="Rectangle_863" data-name="Rectangle 863" transform="translate(54.125 57.581) rotate(90)" fill="#dee9ff" stroke="#ffa200" stroke-width="2">
        <rect width="42.926" height="45.492" rx="5" stroke="none"/>
        <rect x="1" y="1" width="40.926" height="43.492" rx="4" fill="none"/>
      </g>
      <line id="Line_99" data-name="Line 99" y1="38.23" x2="65.36" transform="translate(11.715 13.565)" fill="none" stroke="#ffa200" stroke-width="2"/>
      <line id="Line_101" data-name="Line 101" y1="38.846" x2="41.929" transform="translate(10.482 59.811)" fill="none" stroke="#ffa200" stroke-width="2"/>
      <line id="Line_100" data-name="Line 100" x2="66.593" y2="38.23" transform="translate(10.482 13.565)" fill="none" stroke="#ffa200" stroke-width="2"/>
      <line id="Line_102" data-name="Line 102" x2="41.929" y2="38.846" transform="translate(10.482 59.811)" fill="none" stroke="#ffa200" stroke-width="2"/>
    </g>
  </g>
  <g id="Group_1403" data-name="Group 1403" transform="translate(130.551 256.841) rotate(-22)">
    <g id="Rectangle_858" data-name="Rectangle 858" transform="translate(85.83 0) rotate(90)" fill="#dee9ff" stroke="#ffa200" stroke-width="2">
      <rect width="103.712" height="85.83" rx="10" stroke="none"/>
      <rect x="1" y="1" width="101.712" height="83.83" rx="9" fill="none"/>
    </g>
    <g id="Rectangle_864" data-name="Rectangle 864" transform="translate(76.237 30.646) rotate(180)" fill="#dee9ff" stroke="#ffa200" stroke-width="2">
      <rect width="66.643" height="13.843" rx="1" stroke="none"/>
      <rect x="1" y="1" width="64.643" height="11.843" fill="none"/>
    </g>
    <g id="Rectangle_865" data-name="Rectangle 865" transform="translate(76.237 52.301) rotate(180)" fill="#dee9ff" stroke="#ffa200" stroke-width="2">
      <rect width="66.643" height="9.588" rx="1" stroke="none"/>
      <rect x="1" y="1" width="64.643" height="7.588" fill="none"/>
    </g>
    <g id="Rectangle_866" data-name="Rectangle 866" transform="translate(55.375 65.693) rotate(180)" fill="#dee9ff" stroke="#ffa200" stroke-width="2">
      <rect width="45.781" height="9.588" rx="1" stroke="none"/>
      <rect x="1" y="1" width="43.781" height="7.588" fill="none"/>
    </g>
    <g id="Rectangle_867" data-name="Rectangle 867" transform="translate(76.237 79.085) rotate(180)" fill="#dee9ff" stroke="#ffa200" stroke-width="2">
      <rect width="66.643" height="9.588" rx="1" stroke="none"/>
      <rect x="1" y="1" width="64.643" height="7.588" fill="none"/>
    </g>
    <g id="Rectangle_868" data-name="Rectangle 868" transform="translate(76.237 92.478) rotate(180)" fill="#dee9ff" stroke="#ffa200" stroke-width="2">
      <rect width="66.643" height="9.588" rx="1" stroke="none"/>
      <rect x="1" y="1" width="64.643" height="7.588" fill="none"/>
    </g>
  </g>
  <g id="Group_1404" data-name="Group 1404" transform="translate(185.739 224.688)">
    <g id="Rectangle_858-2" data-name="Rectangle 858" transform="translate(85.831) rotate(90)" fill="#dee9ff" stroke="#ffa200" stroke-width="2">
      <rect width="103.712" height="85.831" rx="10" stroke="none"/>
      <rect x="1" y="1" width="101.712" height="83.831" rx="9" fill="none"/>
    </g>
    <g id="Rectangle_864-2" data-name="Rectangle 864" transform="translate(76.237 30.646) rotate(180)" fill="#dee9ff" stroke="#ffa200" stroke-width="2">
      <rect width="66.643" height="13.843" rx="1" stroke="none"/>
      <rect x="1" y="1" width="64.643" height="11.843" fill="none"/>
    </g>
    <g id="Rectangle_865-2" data-name="Rectangle 865" transform="translate(76.237 52.3) rotate(180)" fill="#dee9ff" stroke="#ffa200" stroke-width="2">
      <rect width="66.643" height="9.588" rx="1" stroke="none"/>
      <rect x="1" y="1" width="64.643" height="7.588" fill="none"/>
    </g>
    <g id="Rectangle_866-2" data-name="Rectangle 866" transform="translate(55.375 65.693) rotate(180)" fill="#dee9ff" stroke="#ffa200" stroke-width="2">
      <rect width="45.781" height="9.588" rx="1" stroke="none"/>
      <rect x="1" y="1" width="43.781" height="7.588" fill="none"/>
    </g>
    <g id="Rectangle_867-2" data-name="Rectangle 867" transform="translate(76.237 79.085) rotate(180)" fill="#dee9ff" stroke="#ffa200" stroke-width="2">
      <rect width="66.643" height="9.588" rx="1" stroke="none"/>
      <rect x="1" y="1" width="64.643" height="7.588" fill="none"/>
    </g>
    <g id="Rectangle_868-2" data-name="Rectangle 868" transform="translate(76.237 92.478) rotate(180)" fill="#dee9ff" stroke="#ffa200" stroke-width="2">
      <rect width="66.643" height="9.588" rx="1" stroke="none"/>
      <rect x="1" y="1" width="64.643" height="7.588" fill="none"/>
    </g>
  </g>
  <g id="Group_1411" data-name="Group 1411" transform="translate(132.261 101.5)">
    <g id="Group_1410" data-name="Group 1410" clip-path="url(#clip-path)">
      <path id="Path_1500" data-name="Path 1500" d="M20.859,38.623C15.264,44.051,13.44,50.594,13.4,57.752a7.272,7.272,0,0,1-.141,1.449,8.669,8.669,0,0,0-1.05,15.827,7.383,7.383,0,0,1-.19,2.676C10.16,86.775,9.692,97.04.649,102.534a1.334,1.334,0,0,0,0,2.286A54.592,54.592,0,0,0,7.3,108.464a5.94,5.94,0,0,0,4.514-.378,15.044,15.044,0,0,0,8.024-12.268c.6-6.469.277-13.022.477-19.534a10.985,10.985,0,0,1,.126-1.349,8.671,8.671,0,0,0-.582-15.469c.28-5.98,1.594-11.612,5.879-16.268a4.175,4.175,0,0,1,5.152-1.239" transform="translate(0 -14.56)" fill="#0f2d80"/>
      <path id="Path_1501" data-name="Path 1501" d="M143.617,74.015V58.928c-1.131.3-1.931.462-2.7.726-14.681,5.061-31.912,10.872-46.643,15.786-9.762-3.119-23.045-7.234-32.749-10.532-4.762-1.619-9.527-3.23-14.59-4.946,0,11.331-.132,22.224.13,33.106A7.665,7.665,0,0,0,49.929,98.3c3.3,2.4,6.863,4.805,10.694,6.078,20.614,6.847,41.6,6.952,62.583,2.024,5.44-1.278,10.647-3.911,15.666-6.5,3.36-1.73,5.009-4.929,4.811-9.079-.268-5.592-.067-11.207-.067-16.813" transform="translate(-17.682 -22.215)" fill="#0f2d80"/>
      <path id="Path_1502" data-name="Path 1502" d="M81.259,0,67.483,4.387,26.153,17.549,12.377,21.937l13.776,4.387L81.259,43.872l13.777-4.387L39.93,21.937,81.259,8.775l41.33,13.162L95.036,30.71,108.812,35.1l27.552-8.775,13.777-4.387-13.777-4.388L95.036,4.387Z" transform="translate(-4.666 0)" fill="#0f2d80"/>
      <path id="Path_1503" data-name="Path 1503" d="M98.617,32.29l15.154-4.826,15.155,4.826-15.155,4.826Z" transform="translate(-37.177 -10.353)" fill="#0f2d80"/>
    </g>
  </g>
</svg>
