<svg id="icon_05_section_01" data-name="icon 05 section 01" xmlns="http://www.w3.org/2000/svg" xmlns:xlink="http://www.w3.org/1999/xlink" width="128.895" height="135.779" viewBox="0 0 128.895 135.779">
  <defs>
    <clipPath id="clip-path">
      <rect id="Rectangle_452" data-name="Rectangle 452" width="104.101" height="102.686" fill="#0f2d80"/>
    </clipPath>
  </defs>
  <g id="Group_903" data-name="Group 903" transform="translate(12.396 33.092)">
    <g id="Mask_Group_902" data-name="Mask Group 902" transform="translate(0 0)" clip-path="url(#clip-path)">
      <path id="Path_1071" data-name="Path 1071" d="M4.288,50.682A25.362,25.362,0,0,1,.6,40.545a40.533,40.533,0,0,1-.587-7.266A34.158,34.158,0,0,1,7.687,12.664,33.716,33.716,0,0,1,19.039,3.583,29.642,29.642,0,0,1,31.389.2C32.94.152,34.49.068,36.042,0c-.117,2.278-.249,4.555-.344,6.834-.12,2.9-.215,5.808-.317,8.711-.106,3.061-.2,6.122-.316,9.183-.115,3.163-.242,6.326-.364,9.49L4.288,50.682" transform="translate(86.119 85.009) rotate(180)" fill="#ffa200" stroke="#fff" stroke-width="3"/>
      <path id="Path_1072" data-name="Path 1072" d="M0,16.463,30.413,0a13.1,13.1,0,0,1,1.559.689Q45.819,9.035,59.651,17.407a24.486,24.486,0,0,1-5.66,7.4A32.917,32.917,0,0,1,31.818,34.36C17.992,34.79,7.5,28.943.275,17.182A4.079,4.079,0,0,1,0,16.463" transform="translate(81.831 50.79) rotate(180)" fill="#0f2d80" stroke="#fff" stroke-width="3"/>
      <path id="Path_1073" data-name="Path 1073" d="M29.238,51.626Q15.4,43.262,1.559,34.907A13.1,13.1,0,0,0,0,34.219c.122-3.163.249-6.326.364-9.49.111-3.061.208-6.122.316-9.181.1-2.9.2-5.809.317-8.713.094-2.278.228-4.556.343-6.834A33.912,33.912,0,0,1,20.627,7.13,33.181,33.181,0,0,1,33.254,27.315a33.624,33.624,0,0,1-3.887,24.223c-.024.041-.085.059-.128.088" transform="translate(51.416 85.01) rotate(180)" fill="#ffe8bf" stroke="#fff" stroke-width="3"/>
    </g>
  </g>
  <path id="Path_1077" data-name="Path 1077" d="M14.814,46.473a10.6,10.6,0,1,1-10.6,10.6,10.6,10.6,0,0,1,10.6-10.6" transform="translate(49.633 -46.473)" fill="#0f2d80"/>
  <path id="Path_1079" data-name="Path 1079" d="M14.814,46.473a10.6,10.6,0,1,1-10.6,10.6,10.6,10.6,0,0,1,10.6-10.6" transform="translate(1.09 28.471)" fill="#ffe8bf"/>
  <path id="Path_1081" data-name="Path 1081" d="M14.814,46.473a10.6,10.6,0,1,1-10.6,10.6,10.6,10.6,0,0,1,10.6-10.6" transform="translate(98.176 28.471)" fill="#ffa200"/>
  <path id="Path_1078" data-name="Path 1078" d="M31.809,81.746A15.9,15.9,0,1,0,0,81.746" transform="translate(48.543 -41.455)" fill="#0f2d80"/>
  <path id="Path_1080" data-name="Path 1080" d="M31.809,81.746A15.9,15.9,0,1,0,0,81.746" transform="translate(0 33.488)" fill="#ffe8bf"/>
  <path id="Path_1082" data-name="Path 1082" d="M31.809,81.746A15.9,15.9,0,1,0,0,81.746" transform="translate(97.086 33.488)" fill="#ffa200"/>
</svg>
