<svg id="Against_wider_city" data-name="Against wider city" xmlns="http://www.w3.org/2000/svg" xmlns:xlink="http://www.w3.org/1999/xlink" width="54.458" height="76.436" viewBox="0 0 54.458 76.436">
  <defs>
    <clipPath id="clip-path">
      <rect id="Rectangle_787" data-name="Rectangle 787" width="42.995" height="63.059" fill="#e7efff"/>
    </clipPath>
    <clipPath id="clip-path-2">
      <rect id="Rectangle_788" data-name="Rectangle 788" width="16.719" height="11.179" fill="#879cd2"/>
    </clipPath>
    <clipPath id="clip-path-3">
      <rect id="Rectangle_791" data-name="Rectangle 791" width="3.822" height="15.669" fill="#849ad2"/>
    </clipPath>
    <clipPath id="clip-path-4">
      <rect id="Rectangle_794" data-name="Rectangle 794" width="3.822" height="20.924" fill="#b3c3e8"/>
    </clipPath>
  </defs>
  <g id="Group_1362" data-name="Group 1362" transform="translate(0 13.377)" style="mix-blend-mode: normal;isolation: isolate">
    <g id="Group_1324" data-name="Group 1324">
      <g id="Group_1323" data-name="Group 1323" clip-path="url(#clip-path)">
        <path id="Path_1424" data-name="Path 1424" d="M222.37,7.031h39.173a1.916,1.916,0,0,1,1.91,1.91V68.18a1.916,1.916,0,0,1-1.91,1.91H222.37a1.916,1.916,0,0,1-1.91-1.91V8.941a1.916,1.916,0,0,1,1.91-1.91" transform="translate(-220.458 -7.03)" fill="#e7efff"/>
      </g>
    </g>
  </g>
  <g id="Group_1363" data-name="Group 1363" transform="translate(12.804 43.377)">
    <g id="Group_1327" data-name="Group 1327">
      <g id="Group_1326" data-name="Group 1326" clip-path="url(#clip-path-2)">
        <path id="Path_1425" data-name="Path 1425" d="M228.813,32.755l-1.625-1.53,5.732-5.635,2.772,2.675,4.108-4.109,1.53,1.53-5.637,5.732-2.772-2.77Z" transform="translate(-227.19 -21.576)" fill="#879cd2"/>
        <path id="Path_1426" data-name="Path 1426" d="M232.663,24.519l6.3-1.72-1.718,6.307Z" transform="translate(-222.249 -22.8)" fill="#879cd2"/>
      </g>
    </g>
  </g>
  <path id="Path_1450" data-name="Path 1450" d="M237.2,32.693l-3.63,3.727a5.273,5.273,0,0,1,1.528,3.725h5.255a10.407,10.407,0,0,0-3.152-7.452" transform="translate(-208.63 29.506)" fill="#849ad2"/>
  <path id="Path_1451" data-name="Path 1451" d="M232.06,36.391a5.181,5.181,0,0,1,2.77,1.433l3.727-3.725a10.441,10.441,0,0,0-5.637-2.962Z" transform="translate(-209.988 28.102)" fill="#ffa200"/>
  <path id="Path_1452" data-name="Path 1452" d="M238.409,31.218a10.376,10.376,0,0,0-12.134,8.5,11.731,11.731,0,0,0-.19,1.815h5.255a5.3,5.3,0,0,1,5.255-5.255,3.6,3.6,0,0,1,.955.1Z" transform="translate(-215.382 28.019)" fill="#0f2d80"/>
  <rect id="Rectangle_810" data-name="Rectangle 810" width="3.822" height="5.255" transform="translate(10.7 33.822)" fill="#1f3b88"/>
  <g id="Group_1364" data-name="Group 1364" transform="translate(16.435 23.408)" style="mix-blend-mode: normal;isolation: isolate">
    <g id="Group_1330" data-name="Group 1330">
      <g id="Group_1329" data-name="Group 1329" clip-path="url(#clip-path-3)">
        <rect id="Rectangle_790" data-name="Rectangle 790" width="3.822" height="15.669" transform="translate(0 -0.001)" fill="#849ad2"/>
      </g>
    </g>
  </g>
  <rect id="Rectangle_811" data-name="Rectangle 811" width="3.822" height="10.414" transform="translate(22.167 28.455)" fill="#ffa200"/>
  <g id="Group_1365" data-name="Group 1365" transform="translate(27.898 18.154)">
    <g id="Group_1333" data-name="Group 1333">
      <g id="Group_1332" data-name="Group 1332" clip-path="url(#clip-path-4)">
        <rect id="Rectangle_793" data-name="Rectangle 793" width="3.822" height="20.924" transform="translate(0 -0.001)" fill="#b3c3e8"/>
      </g>
    </g>
  </g>
  <path id="Path_1453" data-name="Path 1453" d="M264.556,3.515H225.383a1.916,1.916,0,0,0-1.91,1.91V8.292h37.261a1.917,1.917,0,0,1,1.912,1.91V66.574h1.91a1.916,1.916,0,0,0,1.91-1.91V5.425a1.916,1.916,0,0,0-1.91-1.91" transform="translate(-217.739 3.173)" fill="#849ad2"/>
  <path id="Path_1454" data-name="Path 1454" d="M267.569,0H228.4a1.916,1.916,0,0,0-1.91,1.91V4.777h37.261a1.917,1.917,0,0,1,1.912,1.91V63.059h1.91a1.916,1.916,0,0,0,1.91-1.91V1.91A1.916,1.916,0,0,0,267.569,0" transform="translate(-215.021)" fill="#1f3b88"/>
</svg>
