<svg id="Internally" xmlns="http://www.w3.org/2000/svg" xmlns:xlink="http://www.w3.org/1999/xlink" width="84.014" height="67.618" viewBox="0 0 84.014 67.618">
  <defs>
    <clipPath id="clip-path">
      <rect id="Rectangle_916" data-name="Rectangle 916" width="55.121" height="20.383" fill="#ffa200"/>
    </clipPath>
  </defs>
  <g id="Group_1485" data-name="Group 1485">
    <g id="Ellipse_12" data-name="Ellipse 12" transform="translate(9.809 0)" fill="#c6d7fc" stroke="#c6d7fc" stroke-width="5">
      <ellipse cx="32.971" cy="33.612" rx="32.971" ry="33.612" stroke="none"/>
      <ellipse cx="32.971" cy="33.612" rx="30.471" ry="31.112" fill="none"/>
    </g>
    <path id="Path_1059" data-name="Path 1059" d="M11.844,46.473a7.632,7.632,0,1,1-7.632,7.632,7.634,7.634,0,0,1,7.632-7.632" transform="translate(-0.394 -22.739)" fill="#0f2d80"/>
    <path id="Path_1061" data-name="Path 1061" d="M11.844,46.473a7.632,7.632,0,1,1-7.632,7.632,7.634,7.634,0,0,1,7.632-7.632" transform="translate(60.721 -22.739)" fill="#0f2d80"/>
    <path id="Path_1060" data-name="Path 1060" d="M22.9,77.29a11.45,11.45,0,0,0-22.9,0" transform="translate(0 -24.553)" fill="#0f2d80"/>
    <path id="Path_1062" data-name="Path 1062" d="M22.9,77.29a11.45,11.45,0,0,0-22.9,0" transform="translate(61.115 -24.553)" fill="#0f2d80"/>
  </g>
  <path id="Union_19" data-name="Union 19" d="M21.695,36.521a.688.688,0,0,1-.681-.693V34.4a.62.62,0,0,0-.615-.626H11.556a.621.621,0,0,0-.615.626v1.429a.687.687,0,0,1-.681.693H.68A.687.687,0,0,1,0,35.828v-20a.685.685,0,0,1,.68-.691H5.452a.621.621,0,0,0,.615-.626V12.3a.685.685,0,0,1,.679-.691h8.561V.719A.706.706,0,0,1,16.691.509a19.391,19.391,0,0,1,4.638.025c2.627.8,4.128.364,4.679.125a.177.177,0,0,1,.244.165V6.859a.181.181,0,0,1-.114.169,6.439,6.439,0,0,1-4.808-.045c-.908-.462-3.672-.161-4.607-.043v4.668h8.573a.686.686,0,0,1,.679.691v2.21a.622.622,0,0,0,.615.626h4.686a.686.686,0,0,1,.681.691v20a.687.687,0,0,1-.681.693Z" transform="translate(26.558 9.29)" fill="#0f2d80" stroke="rgba(0,0,0,0)" stroke-width="1"/>
  <g id="Group_1488" data-name="Group 1488" transform="translate(14.976 47.235)">
    <path id="Path_1546" data-name="Path 1546" d="M20.049,9.831H34.2L27.126.241Z" transform="translate(0.905)" fill="#ffa200"/>
    <path id="Path_1547" data-name="Path 1547" d="M0,0,.083,11.794,11.535,3.723Z" fill="#ffa200"/>
    <path id="Path_1548" data-name="Path 1548" d="M41.616,4.176l11.156,8.45L53.277.842Z" transform="translate(1.844)" fill="#ffa200"/>
    <rect id="Rectangle_915" data-name="Rectangle 915" width="6.824" height="9.63" transform="translate(24.717 8.275)" fill="#ffa200"/>
    <g id="Group_1489" data-name="Group 1489" transform="translate(0 0)">
      <g id="Group_1488-2" data-name="Group 1488" clip-path="url(#clip-path)">
        <path id="Path_1549" data-name="Path 1549" d="M27.695,20.383C17.019,20.383,7.316,15.418,1.739,7.1L6.993,3.853a24.663,24.663,0,0,0,20.7,10.53A25.175,25.175,0,0,0,47.321,5.32l4.956,3.654A31.555,31.555,0,0,1,27.695,20.383" transform="translate(0.072 0)" fill="#ffa200"/>
      </g>
    </g>
  </g>
</svg>
