<svg id="Maintained_in_real_time" data-name="Maintained in real time" xmlns="http://www.w3.org/2000/svg" xmlns:xlink="http://www.w3.org/1999/xlink" width="76.435" height="76.435" viewBox="0 0 76.435 76.435">
  <defs>
    <clipPath id="clip-path">
      <rect id="Rectangle_502" data-name="Rectangle 502" width="76.435" height="76.435" fill="none"/>
    </clipPath>
    <clipPath id="clip-path-2">
      <rect id="Rectangle_501" data-name="Rectangle 501" width="76.436" height="76.436" fill="none"/>
    </clipPath>
    <clipPath id="clip-path-3">
      <rect id="Rectangle_500" data-name="Rectangle 500" width="65.827" height="65.827" fill="none"/>
    </clipPath>
  </defs>
  <g id="Group_1029" data-name="Group 1029" clip-path="url(#clip-path)">
    <g id="Group_1028" data-name="Group 1028" transform="translate(0 0)">
      <g id="Group_1027" data-name="Group 1027" clip-path="url(#clip-path-2)">
        <path id="Path_1123" data-name="Path 1123" d="M41.627.154A38.216,38.216,0,1,0,76.281,41.627,38.219,38.219,0,0,0,41.627.154m28.14,40.9a31.916,31.916,0,0,1-3.195,11.31,31.678,31.678,0,1,1,3.195-11.31" transform="translate(-0.001 0)" fill="#ffa200"/>
        <g id="Group_1026" data-name="Group 1026" transform="translate(5.321 5.316)" opacity="0.83">
          <g id="Group_1025" data-name="Group 1025" style="mix-blend-mode: normal;isolation: isolate">
            <g id="Group_1024" data-name="Group 1024" clip-path="url(#clip-path-3)">
              <path id="Path_1124" data-name="Path 1124" d="M65.946,37.233A31.66,31.66,0,1,1,37.236,2.876,31.66,31.66,0,0,1,65.946,37.233" transform="translate(-1.497 -1.496)" fill="#e3ecff" opacity="0.802"/>
              <path id="Path_1125" data-name="Path 1125" d="M65.946,37.233A31.66,31.66,0,1,1,37.236,2.876,31.66,31.66,0,0,1,65.946,37.233Z" transform="translate(-1.497 -1.496)" fill="none"/>
            </g>
          </g>
        </g>
        <path id="Path_1126" data-name="Path 1126" d="M12.9,18.635q0-3.073,0-6.143a3.462,3.462,0,0,1,6.867-.727,7.294,7.294,0,0,1,.065,1.021q.007,5.073,0,10.149a1.108,1.108,0,0,0,.351.858q6.479,6.454,12.941,12.926a3.713,3.713,0,0,1,1.111,2.125A3.465,3.465,0,0,1,30.2,42.7a3.646,3.646,0,0,1-1.924-1.037Q22.721,36.1,17.164,30.548q-1.588-1.588-3.184-3.172a3.5,3.5,0,0,1-1.073-2.553c-.007-2.063,0-4.126,0-6.188Z" transform="translate(17.932 12.394)" fill="#0f2d80"/>
      </g>
    </g>
  </g>
</svg>
