<svg id="generate_icon" data-name="generate icon" xmlns="http://www.w3.org/2000/svg" width="207.938" height="197.543" viewBox="0 0 207.938 197.543">
  <path id="Path_1211" data-name="Path 1211" d="M545.9,97.9a65.371,65.371,0,0,1-130.742,0c0-36.13,29.372-65.5,65.24-65.5a65.56,65.56,0,0,1,65.5,65.5" transform="translate(-415.157 34.398)" fill="#7b99e8"/>
  <path id="Path_1212" data-name="Path 1212" d="M441.466,97.9a65.371,65.371,0,1,1,65.5,65.24,65.56,65.56,0,0,1-65.5-65.24" transform="translate(-364.269 34.398)" fill="#607bc4"/>
  <path id="Path_1213" data-name="Path 1213" d="M428.267,74.877a65.5,65.5,0,0,1,131,.261c0,35.868-29.372,65.24-65.5,65.24a65.56,65.56,0,0,1-65.5-65.5" transform="translate(-389.8 -9.637)" fill="#dee9ff"/>
  <path id="Path_1216" data-name="Path 1216" d="M427.115,92.69a68.88,68.88,0,1,1,68.879,68.879A69,69,0,0,1,427.115,92.69" transform="translate(-392.028 17.779)" fill="#0f2d80"/>
  <path id="Path_1217" data-name="Path 1217" d="M446.785,81.694c11.438,10.4,24.953,1.3,23.914-8.319-.781-7.277-6.5-9.616-12.476-11.177-8.58-2.077-11.438-6.238-11.7-11.7-.519-8.838,12.218-17.415,23.134-4.938" transform="translate(-354.514 47.748)" fill="none" stroke="#fff" stroke-linecap="round" stroke-linejoin="round" stroke-width="6"/>
  <line id="Line_73" data-name="Line 73" y2="9.357" transform="translate(103.968 77.716)" fill="none" stroke="#fff" stroke-linecap="round" stroke-linejoin="round" stroke-width="6"/>
  <line id="Line_74" data-name="Line 74" y2="9.357" transform="translate(103.968 133.861)" fill="none" stroke="#fff" stroke-linecap="round" stroke-linejoin="round" stroke-width="6"/>
  <path id="Path_1218" data-name="Path 1218" d="M485.039,21.773a28.072,28.072,0,1,1-28.072,28.072,28.071,28.071,0,0,1,28.072-28.072" transform="translate(-334.286 13.837)" fill="#ffa200"/>
  <line id="Line_75" data-name="Line 75" x2="18.976" transform="translate(141.397 63.681)" fill="none" stroke="#fff" stroke-linecap="round" stroke-linejoin="round" stroke-width="6"/>
  <line id="Line_76" data-name="Line 76" y2="18.715" transform="translate(150.754 54.324)" fill="none" stroke="#fff" stroke-linecap="round" stroke-linejoin="round" stroke-width="6"/>
</svg>
