<svg id="improve_icon" data-name="improve icon" xmlns="http://www.w3.org/2000/svg" width="160.975" height="168.974" viewBox="0 0 160.975 168.974">
  <path id="Path_1022" data-name="Path 1022" d="M94.852,128.449,76.785,231.1H179.438l18.067-102.654Z" transform="translate(-36.531 -62.129)" fill="#c6d7fc"/>
  <line id="Line_51" data-name="Line 51" x1="22.584" transform="translate(13.564 99.17)" fill="none" stroke="#ffa200" stroke-linecap="round" stroke-width="6"/>
  <line id="Line_53" data-name="Line 53" x1="16.425" transform="translate(15.412 123.602)" fill="none" stroke="#ffa200" stroke-linecap="round" stroke-width="6"/>
  <path id="Path_1023" data-name="Path 1023" d="M152.646,254.3v-8.007l-5.544-1.027a12.012,12.012,0,0,0-2.053-3.49l1.848-5.749-6.98-3.9-3.9,4.517a16.646,16.646,0,0,0-4.517,0l-3.9-4.517-6.981,3.9,1.848,5.749a19.5,19.5,0,0,0-2.053,3.49l-5.543,1.027V254.3l5.543,1.027a12.024,12.024,0,0,0,2.053,3.49l-1.848,5.748,6.981,3.9,3.9-4.516a16.646,16.646,0,0,0,4.517,0l3.9,4.516,6.98-3.9-1.642-5.543a19.506,19.506,0,0,0,2.053-3.49Zm-27.511,1.232a10.39,10.39,0,1,1,14.166,3.9,10.434,10.434,0,0,1-14.166-3.9" transform="translate(-56.137 -115.504)" fill="#ffa200"/>
  <path id="Path_1024" data-name="Path 1024" d="M141.588,248.732a8.455,8.455,0,0,1,8.418,8.417,8.418,8.418,0,0,1-16.836,0,8.455,8.455,0,0,1,8.418-8.417m0-3.49A11.908,11.908,0,1,0,153.5,257.15a11.916,11.916,0,0,0-11.908-11.908" transform="translate(-63.762 -122.257)" fill="#ffa200"/>
  <path id="Path_1025" data-name="Path 1025" d="M233.508,243.571l-3.9-6.981-5.544,1.848a12.025,12.025,0,0,0-3.49-2.053l-1.232-5.954h-8.007l-1.027,5.954a12.173,12.173,0,0,0-3.9,2.258l-5.543-1.848-3.9,6.98,4.516,3.9a13.772,13.772,0,0,0,0,4.107l-4.311,3.7,3.9,6.98,5.338-1.848a12.023,12.023,0,0,0,3.49,2.053l1.232,5.954h8.007l1.232-5.749a12.171,12.171,0,0,0,3.9-2.258l5.544,1.848,3.9-6.98-4.517-3.9a13.768,13.768,0,0,0,0-4.106ZM210.1,258.559a10.39,10.39,0,1,1,14.166-3.9,10.434,10.434,0,0,1-14.166,3.9" transform="translate(-98.402 -114.633)" fill="#607bc4"/>
  <path id="Path_1026" data-name="Path 1026" d="M217.906,249.783a8.557,8.557,0,1,1-3.079,11.7,8.478,8.478,0,0,1,3.079-11.7m-1.848-2.874a11.867,11.867,0,0,0,11.908,20.531,12.011,12.011,0,0,0,4.312-16.219,11.735,11.735,0,0,0-16.219-4.311" transform="translate(-105.18 -122.281)" fill="#607bc4"/>
  <path id="Path_1027" data-name="Path 1027" d="M208.118,171.633l-3.9-6.98-5.544,1.848a12.024,12.024,0,0,0-3.49-2.053l-1.232-5.954h-8.007l-1.027,5.954a12.173,12.173,0,0,0-3.9,2.258l-5.543-1.848-3.9,6.98,4.516,3.9a13.773,13.773,0,0,0,0,4.107l-4.311,3.7,3.9,6.98,5.338-1.848a12.023,12.023,0,0,0,3.49,2.053l1.232,5.954h8.007l1.232-5.749a12.171,12.171,0,0,0,3.9-2.258l5.544,1.848,3.9-6.98-4.517-3.9a13.767,13.767,0,0,0,0-4.106Zm-23.405,14.988a10.39,10.39,0,1,1,14.166-3.9,10.434,10.434,0,0,1-14.166,3.9" transform="translate(-85.33 -77.597)" fill="#0f2d80"/>
  <path id="Path_1028" data-name="Path 1028" d="M192.516,177.845a8.658,8.658,0,0,1,11.7,3.08,8.477,8.477,0,0,1-3.08,11.7,8.658,8.658,0,0,1-11.7-3.079,8.478,8.478,0,0,1,3.079-11.7m-1.848-2.874a11.867,11.867,0,1,0,16.219,4.311,11.829,11.829,0,0,0-16.219-4.311" transform="translate(-92.107 -85.246)" fill="#0f2d80"/>
  <path id="Path_1029" data-name="Path 1029" d="M105.128,13.613,101.843,1.5l-3.9,1.027,3.285,12.113a8.489,8.489,0,0,1,3.9-1.027" transform="translate(-47.424 3.228)" fill="#ffd23f"/>
  <path id="Path_1030" data-name="Path 1030" d="M105.128,13.613,101.843,1.5l-3.9,1.027,3.285,12.113A8.489,8.489,0,0,1,105.128,13.613Z" transform="translate(-47.424 3.228)" fill="#ffa200" stroke="#ffa200" stroke-linejoin="round" stroke-width="2"/>
  <path id="Path_1031" data-name="Path 1031" d="M84.422,31.867,72.309,28.582l-1.026,3.9L83.4,35.768a6.2,6.2,0,0,1,1.027-3.9" transform="translate(-33.699 -10.715)" fill="#ffd23f"/>
  <path id="Path_1032" data-name="Path 1032" d="M84.422,31.867,72.309,28.582l-1.026,3.9L83.4,35.768A6.2,6.2,0,0,1,84.422,31.867Z" transform="translate(-33.699 -10.715)" fill="#ffa200" stroke="#ffa200" stroke-linejoin="round" stroke-width="2"/>
  <path id="Path_1033" data-name="Path 1033" d="M123.282,20.87a11.391,11.391,0,0,1,1.232,1.642l8.828-8.828-2.874-2.874-8.828,8.828c.616.205,1.027.821,1.642,1.232" transform="translate(-59.623 -1.565)" fill="#ffd23f"/>
  <path id="Path_1034" data-name="Path 1034" d="M123.282,20.87a11.391,11.391,0,0,1,1.232,1.642l8.828-8.828-2.874-2.874-8.828,8.828C122.256,19.843,122.667,20.46,123.282,20.87Z" transform="translate(-59.623 -1.565)" fill="#ffa200" stroke="#ffa200" stroke-linejoin="round" stroke-width="2"/>
  <path id="Path_1035" data-name="Path 1035" d="M128.591,43.817a8.489,8.489,0,0,1-1.027,3.9L139.677,51l1.027-3.9Z" transform="translate(-62.674 -18.559)" fill="#ffd23f"/>
  <path id="Path_1036" data-name="Path 1036" d="M128.591,43.817a8.489,8.489,0,0,1-1.027,3.9L139.677,51l1.027-3.9Z" transform="translate(-62.674 -18.559)" fill="#ffa200" stroke="#ffa200" stroke-linejoin="round" stroke-width="2"/>
  <path id="Path_1037" data-name="Path 1037" d="M113.176,59.231l3.285,12.113,3.9-1.027L117.077,58.2a8.489,8.489,0,0,1-3.9,1.027" transform="translate(-55.266 -25.965)" fill="#ffd23f"/>
  <path id="Path_1038" data-name="Path 1038" d="M113.176,59.231l3.285,12.113,3.9-1.027L117.077,58.2A8.489,8.489,0,0,1,113.176,59.231Z" transform="translate(-55.266 -25.965)" fill="#ffa200" stroke="#ffa200" stroke-linejoin="round" stroke-width="2"/>
  <path id="Path_1039" data-name="Path 1039" d="M52.156,55.99l-2.9-2.9L4.616,97.863a1.985,1.985,0,0,0,0,2.875,1.985,1.985,0,0,0,2.874,0Z" transform="translate(0.941 -23.33)" fill="#ffd23f"/>
  <path id="Path_1040" data-name="Path 1040" d="M52.156,55.99l-2.9-2.9L4.616,97.863a1.985,1.985,0,0,0,0,2.875,1.985,1.985,0,0,0,2.874,0Z" transform="translate(0.941 -23.33)" fill="#ffa200" stroke="#ffa200" stroke-linejoin="round" stroke-width="2"/>
  <rect id="Rectangle_388" data-name="Rectangle 388" width="160.975" height="168.974" fill="none"/>
  <line id="Line_84" data-name="Line 84" x1="22.584" transform="translate(4.941 148.443)" fill="none" stroke="#ffa200" stroke-linecap="round" stroke-width="6"/>
</svg>
