<svg id="Key_features_04" data-name="Key features 04" xmlns="http://www.w3.org/2000/svg" width="126.499" height="114.907" viewBox="0 0 126.499 114.907">
  <rect id="Rectangle_585" data-name="Rectangle 585" width="35.137" height="102.331" transform="translate(82.584 6.58)" fill="#0f2d80"/>
  <rect id="Rectangle_586" data-name="Rectangle 586" width="34.828" height="66.48" transform="translate(47.757 42.43)" fill="#607bc4" stroke="#425a9b" stroke-width="1"/>
  <rect id="Rectangle_587" data-name="Rectangle 587" width="36.566" height="35.591" transform="translate(11.387 73.319)" fill="#dee9ff"/>
  <path id="Path_1173" data-name="Path 1173" d="M54.379,77.1l.277-30.888h34.69V10.365l35.137-.292V112.4H18.3l-.307-35.3Z" transform="translate(-6.761 -3.786)" fill="none" stroke="#ffa200" stroke-width="3"/>
  <rect id="Rectangle_588" data-name="Rectangle 588" width="13.631" height="12.577" transform="translate(0 101.678)" fill="#ffa200"/>
  <rect id="Rectangle_589" data-name="Rectangle 589" width="9.764" height="9.01" transform="translate(76.412 36.142)" fill="#ffa200"/>
  <rect id="Rectangle_590" data-name="Rectangle 590" width="9.764" height="9.01" transform="translate(43.075 37.04)" fill="#ffa200"/>
  <rect id="Rectangle_591" data-name="Rectangle 591" width="9.364" height="8.64" transform="translate(43.075 69.19)" fill="#ffa200"/>
  <rect id="Rectangle_592" data-name="Rectangle 592" width="9.364" height="8.64" transform="translate(57.434 104.591)" fill="#ffa200"/>
  <rect id="Rectangle_593" data-name="Rectangle 593" width="9.364" height="8.64" transform="translate(113.039 53.134)" fill="#ffa200"/>
  <rect id="Rectangle_594" data-name="Rectangle 594" width="13.631" height="12.577" transform="translate(110.906)" fill="#ffa200"/>
  <rect id="Rectangle_595" data-name="Rectangle 595" width="13.632" height="12.577" transform="translate(112.867 102.331)" fill="#ffa200"/>
  <rect id="Rectangle_596" data-name="Rectangle 596" width="13.632" height="12.577" transform="translate(75.77)" fill="#ffa200"/>
  <rect id="Rectangle_597" data-name="Rectangle 597" width="8.949" height="8.257" transform="translate(6.759 69.382)" fill="#ffa200"/>
</svg>
