<svg id="Key_features_03" data-name="Key features 03" xmlns="http://www.w3.org/2000/svg" xmlns:xlink="http://www.w3.org/1999/xlink" width="155.797" height="129.662" viewBox="0 0 155.797 129.662">
  <defs>
    <clipPath id="clip-path">
      <rect id="Rectangle_511" data-name="Rectangle 511" width="155.797" height="129.662" fill="none"/>
    </clipPath>
  </defs>
  <g id="Group_1058" data-name="Group 1058" clip-path="url(#clip-path)">
    <path id="Path_1134" data-name="Path 1134" d="M136.313,41.555a31.848,31.848,0,0,0-2.782-9.072l6.887-11.542L127.071,8.159l-11,7.838a27.739,27.739,0,0,0-9.1-2.174L100.216,1.5,82.523,6.924l1.762,13.85c-2.757,2.336-5.516,4.669-7.088,7.634l-13.5-.329L60.963,40.755c-15.213-5.14-35.08-3.955-48.091,3.6C4.478,49.309.734,55.929,1.629,62.381V99.816c0,5.744,4,11.74,11.743,16.238,15.489,8.992,40.473,8.992,55.962,0,7.743-4.248,11.492-10.243,11.492-15.99V83.974l.7.675,10.544-7.7a27.756,27.756,0,0,0,9.1,2.174l6.753,12.322,17.7-5.424-1.173-13.538c2.759-2.333,5.519-4.669,7.091-7.631l13.5.329,3.894-18.067Z" transform="translate(2.68 2.682)" fill="none" stroke="#ffa200" stroke-linecap="round" stroke-linejoin="round" stroke-width="5"/>
    <path id="Path_1135" data-name="Path 1135" d="M80.761,32.274V45.513c0,5.747-3.746,11.743-11.492,15.99C53.781,70.5,28.8,70.5,13.308,61.5c-7.743-4.5-11.74-10.494-11.74-16.238V32.023" transform="translate(2.802 57.233)" fill="#dee9ff"/>
    <path id="Path_1136" data-name="Path 1136" d="M80.761,27.523V40.762c0,5.747-3.746,11.743-11.492,15.99-15.489,8.994-40.47,8.994-55.962,0-7.743-4.5-11.74-10.494-11.74-16.238V27.272" transform="translate(2.802 48.742)" fill="#607bc4"/>
    <path id="Path_1137" data-name="Path 1137" d="M80.761,22.862V36.1c0,5.747-3.746,11.743-11.492,15.99-15.489,8.994-40.47,8.994-55.962,0C5.565,47.6,1.568,41.6,1.568,35.853V22.611" transform="translate(2.802 40.412)" fill="#425a9b"/>
    <path id="Path_1138" data-name="Path 1138" d="M69.121,21.2c15.489,8.994,15.489,23.482.251,32.477-15.491,8.994-40.473,8.994-56.21,0C-2.329,44.683-2.329,30.195,12.911,21.2c15.489-8.994,40.721-8.994,56.21,0" transform="translate(2.703 25.835)" fill="#607bc4"/>
    <path id="Path_1139" data-name="Path 1139" d="M103.032,20.941,89.687,8.159,78.688,16a27.682,27.682,0,0,0-9.1-2.171L62.829,1.5,45.136,6.921,46.9,20.776c-2.759,2.33-5.516,4.666-7.091,7.629l-13.5-.329L22.417,46.143,35.04,51.7a31.772,31.772,0,0,0,2.779,9.075L30.8,71.863,44.143,84.648l10.544-7.7a27.805,27.805,0,0,0,9.1,2.171l6.753,12.322,17.693-5.421L87.067,72.488c2.759-2.338,5.519-4.671,7.091-7.634l13.5.329,3.891-18.067L98.929,41.552a31.857,31.857,0,0,0-2.782-9.07ZM61.463,69.91A24.547,24.547,0,0,1,43.249,41.249,24.552,24.552,0,0,1,71.912,23.034,24.543,24.543,0,0,1,90.124,51.7C87.111,64.533,74.3,72.925,61.463,69.91" transform="translate(40.064 2.682)" fill="#0f2d80"/>
    <path id="Path_1140" data-name="Path 1140" d="M41.831,21.762a20.014,20.014,0,0,1,27.947-1.12C78,28.047,78.3,40.361,70.9,48.586a20.01,20.01,0,0,1-27.945,1.12c-8.225-7.406-8.523-19.72-1.12-27.945m-6.029-5.1A27.427,27.427,0,1,0,74.564,15.2C63.864,4.587,46.28,5.51,35.8,16.661" transform="translate(50.841 13.843)" fill="#0f2d80"/>
  </g>
</svg>
