<svg id="Key_features_05" data-name="Key features 05" xmlns="http://www.w3.org/2000/svg" xmlns:xlink="http://www.w3.org/1999/xlink" width="82.531" height="115.314" viewBox="0 0 82.531 115.314">
  <defs>
    <clipPath id="clip-path">
      <rect id="Rectangle_534" data-name="Rectangle 534" width="82.531" height="115.314" fill="none"/>
    </clipPath>
  </defs>
  <g id="Group_1087" data-name="Group 1087" clip-path="url(#clip-path)">
    <path id="Path_1145" data-name="Path 1145" d="M40.358,6.912h1.8c.247.1.49.217.743.29,2.225.62,4.451,1.229,6.676,1.845q14.556,4.047,29.115,8.1a3.225,3.225,0,0,1,2.765,3.121c.336,3.794.686,7.589.9,11.393a119.044,119.044,0,0,1-.3,16.919A90.59,90.59,0,0,1,79.853,62.24a42.466,42.466,0,0,1-8.591,17.439A61.341,61.341,0,0,1,56.424,92.688,58.724,58.724,0,0,1,42.8,98.94a4.6,4.6,0,0,1-3.085-.01c-2.242-.849-4.534-1.582-6.716-2.565A59.173,59.173,0,0,1,11.216,79.6a40.751,40.751,0,0,1-5.147-7.8,58.692,58.692,0,0,1-4.83-16.513A104.815,104.815,0,0,1,0,39.138,154.871,154.871,0,0,1,1.016,20.627c.237-2.062.913-2.948,2.9-3.5q14.861-4.137,29.718-8.271c2.249-.626,4.484-1.293,6.726-1.942" transform="translate(0 16.113)" fill="#ffa200"/>
    <path id="Path_1146" data-name="Path 1146" d="M27.348,40.1c.376-.356.7-.65,1-.953q11.4-11.393,22.809-22.779a5.943,5.943,0,0,1,1.719-1.3,3.353,3.353,0,0,1,3.848.676c1.319,1.253,2.622,2.528,3.861,3.861a3.525,3.525,0,0,1,.013,4.944c-.143.167-.3.32-.456.473Q45.23,39.928,30.323,54.846a4.252,4.252,0,0,1-2.5,1.436,3.754,3.754,0,0,1-3.241-1.233Q21,51.441,17.4,47.86q-5.527-5.522-11.05-11.046c-2.072-2.079-2.075-3.964-.02-6.04.9-.906,1.8-1.806,2.7-2.708,2.189-2.182,4.034-2.2,6.2-.03q5.571,5.556,11.13,11.123c.3.3.623.593.989.939" transform="translate(11.167 34.354)" fill="#0f2d80"/>
    <path id="Path_1147" data-name="Path 1147" d="M13.037,35.6c.2-.283.276-.336.283-.4.053-.543.09-1.086.147-1.629.56-5.453,1.836-10.61,4.727-15.037a11.6,11.6,0,0,1,2.362-2.842c3.987-3.088,8.281-5.11,13.188-4.437,6.806.933,11.889,4.74,14.731,12.282a47.974,47.974,0,0,1,2.222,9.98c.276,1.855.486,2.1,2.052,2.139q3,.08,6.01,0c1.446-.037,1.756-.473,1.529-2.2-.336-2.555-.6-5.14-1.156-7.635C57.8,19.841,55.773,14.178,52.042,9.691A25.429,25.429,0,0,0,31.665,0,23.439,23.439,0,0,0,19.9,3.221,27.846,27.846,0,0,0,8.257,16a50.927,50.927,0,0,0-4.3,16.533,25.436,25.436,0,0,0-.01,2.575c3.188.943,6.226.486,9.094.5" transform="translate(9.119 -0.001)" fill="#607bc4"/>
    <path id="Path_1148" data-name="Path 1148" d="M3.556,11.62c0,.756,2.652,1.369,5.923,1.369S15.4,12.376,15.4,11.62s-2.652-1.369-5.923-1.369-5.923.613-5.923,1.369" transform="translate(8.29 23.897)" fill="#8886bf"/>
    <path id="Path_1149" data-name="Path 1149" d="M17.663,11.62c0,.756,2.652,1.369,5.923,1.369s5.923-.613,5.923-1.369-2.652-1.369-5.923-1.369-5.923.613-5.923,1.369" transform="translate(41.176 23.897)" fill="#8886bf"/>
    <path id="Path_1150" data-name="Path 1150" d="M3.92,11.449c0,.8,2.109,1.446,4.71,1.446s4.71-.646,4.71-1.446S11.232,10,8.63,10s-4.71.646-4.71,1.446" transform="translate(9.138 23.319)" fill="#8886bf"/>
    <path id="Path_1151" data-name="Path 1151" d="M18.028,11.447c0,.8,2.105,1.446,4.707,1.446s4.71-.646,4.71-1.446S25.337,10,22.735,10s-4.707.646-4.707,1.446" transform="translate(42.027 23.314)" fill="#8886bf"/>
  </g>
</svg>
