<svg id="Key_features_01" data-name="Key features 01" xmlns="http://www.w3.org/2000/svg" xmlns:xlink="http://www.w3.org/1999/xlink" width="117.959" height="119.03" viewBox="0 0 117.959 119.03">
  <defs>
    <clipPath id="clip-path">
      <rect id="Rectangle_757" data-name="Rectangle 757" width="117.959" height="119.03" fill="none"/>
    </clipPath>
  </defs>
  <g id="Group_1288" data-name="Group 1288" clip-path="url(#clip-path)">
    <path id="Path_1365" data-name="Path 1365" d="M106.688,25.729,89.026,8.813,74.47,19.19a36.642,36.642,0,0,0-12.043-2.873L53.482,0,30.067,7.175,32.4,25.51c-3.652,3.084-7.3,6.175-9.384,10.1L5.151,35.171,0,59.082l16.705,7.354a42.056,42.056,0,0,0,3.678,12.01L11.094,93.12l17.658,16.92L42.706,99.849a36.8,36.8,0,0,0,12.043,2.873l8.937,16.307L87.1,111.856,85.559,93.947c3.651-3.094,7.3-6.182,9.384-10.1l17.866.435,5.149-23.91-16.7-7.363a42.161,42.161,0,0,0-3.681-12ZM51.674,90.535A32.486,32.486,0,0,1,27.569,52.6,32.492,32.492,0,0,1,65.5,28.5,32.48,32.48,0,0,1,89.6,66.436c-3.987,16.984-20.942,28.09-37.931,24.1" fill="#0f2d80"/>
    <path id="Path_1366" data-name="Path 1366" d="M67.1,71.111a36.3,36.3,0,1,0,51.3-1.931l0,0c-14.161-14.046-37.432-12.824-51.3,1.933" transform="translate(-35.115 -36.276)" fill="#607bc4"/>
    <path id="Path_1367" data-name="Path 1367" d="M90.558,96.28c.184.174.351.325.51.483q2.809,2.807,5.616,5.616a2.579,2.579,0,1,0,3.677-3.613c-1.848-1.875-3.713-3.732-5.577-5.589a6.782,6.782,0,0,0-.686-.519,8.514,8.514,0,0,1,2.959-1.077,9.029,9.029,0,0,1,9.607,4.76,8.775,8.775,0,0,1,.724,6.8.722.722,0,0,0,.223.835q5.656,5.639,11.3,11.291c1.926,1.926,3.857,3.847,5.772,5.783a.718.718,0,0,0,.836.207,9.183,9.183,0,0,1,11.573,7.471,9.083,9.083,0,0,1-1.02,5.7c-.175-.158-.332-.287-.475-.431q-2.825-2.823-5.647-5.649a2.559,2.559,0,0,0-2.773-.713,2.448,2.448,0,0,0-1.722,2.176,2.532,2.532,0,0,0,.81,2.153l5.746,5.745c.116.116.226.238.371.391a8.307,8.307,0,0,1-3.149,1.064A9.088,9.088,0,0,1,119.1,132.14a8.208,8.208,0,0,1,.116-4.617.642.642,0,0,0-.2-.758q-5.678-5.65-11.34-11.316-2.906-2.9-5.805-5.812a.658.658,0,0,0-.753-.217,9.163,9.163,0,0,1-11.678-7.9,9.041,9.041,0,0,1,.943-4.977,2.947,2.947,0,0,1,.168-.262" transform="translate(-54.681 -55.936)" fill="#ffa200"/>
    <path id="Path_1368" data-name="Path 1368" d="M105.388,155.812l6.72,6.722c-.294.3-.6.632-.924.952-4.518,4.525-9.063,9.025-13.547,13.585a4.892,4.892,0,0,1-6.917.243,4.751,4.751,0,0,1-.049-6.8c2.582-2.612,5.188-5.2,7.785-7.8q3.293-3.3,6.587-6.588c.107-.107.222-.207.344-.32" transform="translate(-54.596 -95.298)" fill="#ffa200"/>
    <path id="Path_1369" data-name="Path 1369" d="M178.964,95.929c-.082.174-.137.3-.2.421-.954,1.847-1.9,3.7-2.871,5.536a1.1,1.1,0,0,1-.444.43c-1.908,1-3.827,1.983-5.737,2.982a2.618,2.618,0,0,0-.617.464q-3.626,3.61-7.235,7.237c-.3.307-.464.294-.755-.01-.952-.994-1.928-1.965-2.917-2.923-.261-.253-.267-.4-.007-.655q3.6-3.573,7.17-7.173a3.886,3.886,0,0,0,.672-.912c.946-1.8,1.858-3.616,2.81-5.412a1.667,1.667,0,0,1,.652-.653c1.714-.912,3.447-1.785,5.166-2.688a.484.484,0,0,1,.645.079c1.119,1,2.254,1.976,3.38,2.964a3.777,3.777,0,0,1,.287.312" transform="translate(-96.63 -56.566)" fill="#ffa200"/>
  </g>
</svg>
