<svg id="outcomes_02" data-name="outcomes 02" xmlns="http://www.w3.org/2000/svg" xmlns:xlink="http://www.w3.org/1999/xlink" width="165.509" height="142.054" viewBox="0 0 165.509 142.054">
  <defs>
    <clipPath id="clip-path">
      <rect id="Rectangle_497" data-name="Rectangle 497" width="165.509" height="142.054" fill="none"/>
    </clipPath>
    <clipPath id="clip-path-2">
      <rect id="Rectangle_496" data-name="Rectangle 496" width="165.509" height="142.053" fill="none"/>
    </clipPath>
    <clipPath id="clip-path-3">
      <rect id="Rectangle_463" data-name="Rectangle 463" width="31.098" height="21.089" fill="#607bc4"/>
    </clipPath>
    <clipPath id="clip-path-4">
      <rect id="Rectangle_466" data-name="Rectangle 466" width="7.149" height="29.311" fill="#425a9b"/>
    </clipPath>
    <clipPath id="clip-path-5">
      <rect id="Rectangle_469" data-name="Rectangle 469" width="7.149" height="39.14" fill="#607bc4"/>
    </clipPath>
    <clipPath id="clip-path-6">
      <rect id="Rectangle_471" data-name="Rectangle 471" width="26.808" height="3.574" fill="#607bc4"/>
    </clipPath>
    <clipPath id="clip-path-7">
      <rect id="Rectangle_473" data-name="Rectangle 473" width="32.17" height="3.574" fill="#607bc4"/>
    </clipPath>
    <clipPath id="clip-path-8">
      <rect id="Rectangle_475" data-name="Rectangle 475" width="35.744" height="3.574" fill="#607bc4"/>
    </clipPath>
    <clipPath id="clip-path-12">
      <rect id="Rectangle_483" data-name="Rectangle 483" width="35.744" height="3.575" fill="#607bc4"/>
    </clipPath>
    <clipPath id="clip-path-15">
      <rect id="Rectangle_489" data-name="Rectangle 489" width="32.17" height="3.575" fill="#607bc4"/>
    </clipPath>
  </defs>
  <g id="Group_993" data-name="Group 993" clip-path="url(#clip-path)">
    <g id="Group_992" data-name="Group 992" transform="translate(0 0.001)">
      <g id="Group_991" data-name="Group 991" clip-path="url(#clip-path-2)">
        <path id="Path_1092" data-name="Path 1092" d="M23.835,57.911q-8.619,0-17.238,0c-4.179,0-4.9-.745-4.849-5,0-.5.011-1,.029-1.5.1-2.756,1.051-3.757,3.787-3.776q8.988-.069,17.983-.055,9.242,0,18.484.048c3.1.018,4,.917,4.084,3.994.022.831.018,1.666-.007,2.5-.079,2.732-1.062,3.761-3.787,3.774C36.16,57.925,30,57.9,23.835,57.9Z" transform="translate(2.092 57.004)" fill="#ffa200"/>
        <path id="Path_1093" data-name="Path 1093" d="M23.835,63.752q-8.619,0-17.238,0c-4.179,0-4.9-.745-4.849-5,0-.5.011-1,.029-1.5.1-2.756,1.051-3.757,3.787-3.776q8.988-.069,17.983-.055,9.242,0,18.484.048c3.1.018,4,.917,4.084,3.994.022.831.018,1.666-.007,2.5-.079,2.732-1.062,3.761-3.787,3.774-6.161.033-12.325.011-18.486.011Z" transform="translate(2.092 64.003)" fill="#ffa200"/>
        <path id="Path_1094" data-name="Path 1094" d="M23.835,46.229q-8.619,0-17.238,0c-4.179,0-4.9-.745-4.849-5,0-.5.011-1,.029-1.5.1-2.756,1.051-3.757,3.787-3.776q8.988-.069,17.983-.055,9.242,0,18.484.048c3.1.018,4,.917,4.084,3.994.022.831.018,1.666-.007,2.5-.079,2.732-1.062,3.761-3.787,3.774-6.161.033-12.325.011-18.486.011Z" transform="translate(2.092 43.008)" fill="#ffa200"/>
        <path id="Path_1095" data-name="Path 1095" d="M23.835,52.07q-8.619,0-17.238,0c-4.179,0-4.9-.745-4.849-5,0-.5.011-1,.029-1.5.1-2.756,1.051-3.757,3.787-3.776q8.988-.069,17.983-.055,9.242,0,18.484.048c3.1.018,4,.917,4.084,3.994.022.831.018,1.666-.007,2.5-.079,2.732-1.062,3.761-3.787,3.774-6.161.033-12.325.011-18.486.011Z" transform="translate(2.092 50.006)" fill="#ffa200"/>
        <path id="Path_1096" data-name="Path 1096" d="M23.835,69.592q-8.619,0-17.238,0c-4.179,0-4.9-.745-4.849-5,0-.5.011-1,.029-1.5.1-2.756,1.051-3.757,3.787-3.776q8.988-.069,17.983-.055,9.242,0,18.484.048c3.1.018,4,.917,4.084,3.994.022.831.018,1.666-.007,2.5-.079,2.732-1.062,3.761-3.787,3.774-6.161.033-12.325.011-18.486.011Z" transform="translate(2.092 71)" fill="#ffa200"/>
        <path id="Path_1097" data-name="Path 1097" d="M34.151,3.645H125.3a3.586,3.586,0,0,1,3.574,3.574V134.112a3.584,3.584,0,0,1-3.574,3.574H34.151a3.584,3.584,0,0,1-3.574-3.574V7.219a3.586,3.586,0,0,1,3.574-3.574" transform="translate(36.636 4.366)" fill="#dee9ff"/>
        <g id="Group_945" data-name="Group 945" transform="translate(74.004 82.181)" opacity="0.75">
          <g id="Group_944" data-name="Group 944">
            <g id="Group_943" data-name="Group 943" clip-path="url(#clip-path-3)">
              <path id="Path_1098" data-name="Path 1098" d="M36.526,55.846l-2.86-3.038L44.211,42.264l5.183,5.183,7.685-7.865,2.86,2.86L49.394,53.164l-5.183-5.181Z" transform="translate(-33.667 -34.757)" fill="#607bc4"/>
              <path id="Path_1099" data-name="Path 1099" d="M42.447,40.6l11.8-3.218L51.027,49.362Z" transform="translate(-23.145 -37.388)" fill="#607bc4"/>
            </g>
          </g>
        </g>
        <path id="Path_1100" data-name="Path 1100" d="M73.24,55.03,66.27,62a9.866,9.866,0,0,1,2.86,6.97h9.83A20.381,20.381,0,0,0,73.24,55.03" transform="translate(79.401 65.933)" fill="#607bc4"/>
        <path id="Path_1101" data-name="Path 1101" d="M63.912,62.34A9.7,9.7,0,0,1,69.1,65.022l6.97-6.97A19.529,19.529,0,0,0,65.521,52.51Z" transform="translate(76.576 62.914)" fill="#ffa200"/>
        <path id="Path_1102" data-name="Path 1102" d="M77.21,52.768a19.41,19.41,0,0,0-22.7,15.906,21.981,21.981,0,0,0-.356,3.4h9.828a9.918,9.918,0,0,1,9.83-9.83,6.647,6.647,0,0,1,1.787.18Z" transform="translate(64.887 62.834)" fill="#0f2d80"/>
        <rect id="Rectangle_464" data-name="Rectangle 464" width="7.148" height="9.83" transform="translate(119.043 46.436)" fill="#0f2d80"/>
        <g id="Group_948" data-name="Group 948" transform="translate(129.765 26.777)" opacity="0.75" style="mix-blend-mode: normal;isolation: isolate">
          <g id="Group_947" data-name="Group 947">
            <g id="Group_946" data-name="Group 946" clip-path="url(#clip-path-4)">
              <rect id="Rectangle_465" data-name="Rectangle 465" width="7.148" height="29.31" transform="translate(0 0.001)" fill="#425a9b"/>
            </g>
          </g>
        </g>
        <rect id="Rectangle_467" data-name="Rectangle 467" width="7.148" height="19.48" transform="translate(140.488 36.608)" fill="#ffa200"/>
        <g id="Group_951" data-name="Group 951" transform="translate(151.212 17.126)" opacity="0.75">
          <g id="Group_950" data-name="Group 950">
            <g id="Group_949" data-name="Group 949" clip-path="url(#clip-path-5)">
              <rect id="Rectangle_468" data-name="Rectangle 468" width="7.148" height="39.14" transform="translate(0.001 0)" fill="#607bc4"/>
            </g>
          </g>
        </g>
        <g id="Group_954" data-name="Group 954" transform="translate(76.148 49.117)" opacity="0.5" style="mix-blend-mode: normal;isolation: isolate">
          <g id="Group_953" data-name="Group 953">
            <g id="Group_952" data-name="Group 952" clip-path="url(#clip-path-6)">
              <rect id="Rectangle_470" data-name="Rectangle 470" width="26.809" height="3.574" transform="translate(0 0)" fill="#607bc4"/>
            </g>
          </g>
        </g>
        <g id="Group_957" data-name="Group 957" transform="translate(76.148 27.671)" opacity="0.5" style="mix-blend-mode: normal;isolation: isolate">
          <g id="Group_956" data-name="Group 956">
            <g id="Group_955" data-name="Group 955" clip-path="url(#clip-path-7)">
              <rect id="Rectangle_472" data-name="Rectangle 472" width="32.17" height="3.574" transform="translate(0 0)" fill="#607bc4"/>
            </g>
          </g>
        </g>
        <g id="Group_960" data-name="Group 960" transform="translate(76.148 34.82)" opacity="0.5" style="mix-blend-mode: normal;isolation: isolate">
          <g id="Group_959" data-name="Group 959">
            <g id="Group_958" data-name="Group 958" clip-path="url(#clip-path-8)">
              <rect id="Rectangle_474" data-name="Rectangle 474" width="35.744" height="3.574" transform="translate(0 -0.001)" fill="#607bc4"/>
            </g>
          </g>
        </g>
        <g id="Group_963" data-name="Group 963" transform="translate(76.148 41.969)" opacity="0.5" style="mix-blend-mode: normal;isolation: isolate">
          <g id="Group_962" data-name="Group 962">
            <g id="Group_961" data-name="Group 961" clip-path="url(#clip-path-7)">
              <rect id="Rectangle_476" data-name="Rectangle 476" width="32.17" height="3.574" transform="translate(0 0.001)" fill="#607bc4"/>
            </g>
          </g>
        </g>
        <g id="Group_966" data-name="Group 966" transform="translate(119.042 99.16)" opacity="0.5" style="mix-blend-mode: normal;isolation: isolate">
          <g id="Group_965" data-name="Group 965">
            <g id="Group_964" data-name="Group 964" clip-path="url(#clip-path-6)">
              <rect id="Rectangle_478" data-name="Rectangle 478" width="26.809" height="3.574" transform="translate(0.001 0.001)" fill="#607bc4"/>
            </g>
          </g>
        </g>
        <g id="Group_969" data-name="Group 969" transform="translate(119.042 63.415)" opacity="0.5" style="mix-blend-mode: normal;isolation: isolate">
          <g id="Group_968" data-name="Group 968">
            <g id="Group_967" data-name="Group 967" clip-path="url(#clip-path-6)">
              <rect id="Rectangle_480" data-name="Rectangle 480" width="26.809" height="3.574" transform="translate(0.001 -0.001)" fill="#607bc4"/>
            </g>
          </g>
        </g>
        <g id="Group_972" data-name="Group 972" transform="translate(119.042 70.564)" opacity="0.5" style="mix-blend-mode: normal;isolation: isolate">
          <g id="Group_971" data-name="Group 971">
            <g id="Group_970" data-name="Group 970" clip-path="url(#clip-path-12)">
              <rect id="Rectangle_482" data-name="Rectangle 482" width="35.744" height="3.574" transform="translate(0.001 0.001)" fill="#607bc4"/>
            </g>
          </g>
        </g>
        <g id="Group_975" data-name="Group 975" transform="translate(119.042 77.713)" opacity="0.5" style="mix-blend-mode: normal;isolation: isolate">
          <g id="Group_974" data-name="Group 974">
            <g id="Group_973" data-name="Group 973" clip-path="url(#clip-path-7)">
              <rect id="Rectangle_484" data-name="Rectangle 484" width="32.17" height="3.574" transform="translate(0.001 0)" fill="#607bc4"/>
            </g>
          </g>
        </g>
        <g id="Group_978" data-name="Group 978" transform="translate(119.042 84.862)" opacity="0.5" style="mix-blend-mode: normal;isolation: isolate">
          <g id="Group_977" data-name="Group 977">
            <g id="Group_976" data-name="Group 976" clip-path="url(#clip-path-8)">
              <rect id="Rectangle_486" data-name="Rectangle 486" width="35.744" height="3.574" transform="translate(0.001 0)" fill="#607bc4"/>
            </g>
          </g>
        </g>
        <g id="Group_981" data-name="Group 981" transform="translate(119.042 92.011)" opacity="0.5" style="mix-blend-mode: normal;isolation: isolate">
          <g id="Group_980" data-name="Group 980">
            <g id="Group_979" data-name="Group 979" clip-path="url(#clip-path-15)">
              <rect id="Rectangle_488" data-name="Rectangle 488" width="32.17" height="3.574" transform="translate(0.001 -0.001)" fill="#607bc4"/>
            </g>
          </g>
        </g>
        <g id="Group_984" data-name="Group 984" transform="translate(76.148 131.33)" opacity="0.5" style="mix-blend-mode: normal;isolation: isolate">
          <g id="Group_983" data-name="Group 983">
            <g id="Group_982" data-name="Group 982" clip-path="url(#clip-path-6)">
              <rect id="Rectangle_490" data-name="Rectangle 490" width="26.809" height="3.574" transform="translate(0 0.001)" fill="#607bc4"/>
            </g>
          </g>
        </g>
        <g id="Group_987" data-name="Group 987" transform="translate(76.148 117.032)" opacity="0.5" style="mix-blend-mode: normal;isolation: isolate">
          <g id="Group_986" data-name="Group 986">
            <g id="Group_985" data-name="Group 985" clip-path="url(#clip-path-6)">
              <rect id="Rectangle_492" data-name="Rectangle 492" width="26.809" height="3.574" transform="translate(0 0)" fill="#607bc4"/>
            </g>
          </g>
        </g>
        <g id="Group_990" data-name="Group 990" transform="translate(76.148 124.181)" opacity="0.5" style="mix-blend-mode: normal;isolation: isolate">
          <g id="Group_989" data-name="Group 989">
            <g id="Group_988" data-name="Group 988" clip-path="url(#clip-path-7)">
              <rect id="Rectangle_494" data-name="Rectangle 494" width="32.17" height="3.574" transform="translate(0 -0.001)" fill="#607bc4"/>
            </g>
          </g>
        </g>
        <path id="Path_1122" data-name="Path 1122" d="M27.722,48.043A6.135,6.135,0,0,0,26.2,43.667a13.847,13.847,0,0,0-5.183-3,61.113,61.113,0,0,1-6.3-2.732,20.029,20.029,0,0,1-4.544-3.119,12.5,12.5,0,0,1-2.952-4.144A13.87,13.87,0,0,1,6.156,25a12.579,12.579,0,0,1,3.623-9.292A15.291,15.291,0,0,1,19.4,11.486V4.309H24.77v7.278a14,14,0,0,1,9.292,4.946q3.353,4.108,3.354,10.648H27.722q0-4.023-1.66-6.019a5.491,5.491,0,0,0-4.445-2,5.654,5.654,0,0,0-4.26,1.558,5.946,5.946,0,0,0-1.508,4.311,5.663,5.663,0,0,0,1.475,4.091,16.25,16.25,0,0,0,5.484,3.154,60.549,60.549,0,0,1,6.59,3.036,19.009,19.009,0,0,1,4.359,3.218,12.464,12.464,0,0,1,2.717,4.093,14.058,14.058,0,0,1,.941,5.348,12.525,12.525,0,0,1-3.557,9.259q-3.554,3.554-9.793,4.192V68.1H18.734V61.459q-6.875-.739-10.648-4.88T4.312,45.562h9.694a8.9,8.9,0,0,0,1.895,6.12,6.9,6.9,0,0,0,5.449,2.13,6.659,6.659,0,0,0,4.662-1.558,5.413,5.413,0,0,0,1.71-4.209" transform="translate(5.167 5.162)" fill="#0f2d80"/>
      </g>
    </g>
  </g>
</svg>
